<?xml version="1.0" encoding="UTF-8"?>
<svg xmlns="http://www.w3.org/2000/svg" width="1440" height="960" viewBox="0 0 1440 960" role="img" aria-labelledby="title desc">
<title id="title">1HandIndia - Homepage</title>
<desc id="desc">Phase 1 UI mockup for Homepage, route /</desc>
<defs><filter id="shadow" x="-20%" y="-20%" width="140%" height="140%"><feDropShadow dx="0" dy="10" stdDeviation="14" flood-color="#101828" flood-opacity="0.12"/></filter></defs>
<rect x="0" y="0" width="1440" height="960" rx="0" fill="#FAF7F0" stroke="none" stroke-width="0" />
<rect x="24" y="20" width="1392" height="900" rx="18" fill="#FFFFFF" stroke="#D8DEE8" stroke-width="1" filter="url(#shadow)"/>
<rect x="24" y="20" width="1392" height="42" rx="18" fill="#F8FAFC" stroke="#D8DEE8" stroke-width="1" />
<circle cx="52" cy="41" r="6" fill="#FF5F56" stroke="none" stroke-width="1"/>
<circle cx="74" cy="41" r="6" fill="#FFBD2E" stroke="none" stroke-width="1"/>
<circle cx="96" cy="41" r="6" fill="#27C93F" stroke="none" stroke-width="1"/>
<text x="122" y="47" font-family="Inter, Segoe UI, Arial, sans-serif" font-size="13" font-weight="700" fill="#667085" text-anchor="start" >1HandIndia Phase 1 UI mockup</text>
<text x="1380" y="47" font-family="Inter, Segoe UI, Arial, sans-serif" font-size="13" font-weight="600" fill="#667085" text-anchor="end" >/</text>
<rect x="24" y="62" width="1392" height="76" rx="0" fill="#163B5C" stroke="none" stroke-width="0" />
<text x="58" y="111" font-family="Inter, Segoe UI, Arial, sans-serif" font-size="28" font-weight="900" fill="#FFFFFF" text-anchor="start" >1HandIndia</text>
<rect x="212" y="82" width="520" height="38" rx="8" fill="#FFFFFF" stroke="none" stroke-width="0" />
<text x="236" y="107" font-family="Inter, Segoe UI, Arial, sans-serif" font-size="13" font-weight="500" fill="#667085" text-anchor="start" >Search products, stores, categories</text>
<rect x="768" y="86" width="112" height="30" rx="15" fill="#274B68" stroke="none" stroke-width="0" />
<text x="824" y="106" font-family="Inter, Segoe UI, Arial, sans-serif" font-size="13" font-weight="700" fill="#FFFFFF" text-anchor="middle" >Categories</text>
<rect x="898" y="86" width="88" height="30" rx="15" fill="#274B68" stroke="none" stroke-width="0" />
<text x="942" y="106" font-family="Inter, Segoe UI, Arial, sans-serif" font-size="13" font-weight="700" fill="#FFFFFF" text-anchor="middle" >Stores</text>
<rect x="1002" y="86" width="72" height="30" rx="15" fill="#274B68" stroke="none" stroke-width="0" />
<text x="1038" y="106" font-family="Inter, Segoe UI, Arial, sans-serif" font-size="13" font-weight="700" fill="#FFFFFF" text-anchor="middle" >B2B</text>
<rect x="1132" y="79" width="104" height="44" rx="8" fill="#F57C00" stroke="none" stroke-width="0" />
<text x="1184" y="107" font-family="Inter, Segoe UI, Arial, sans-serif" font-size="14" font-weight="800" fill="#FFFFFF" text-anchor="middle" >Cart</text>
<rect x="1254" y="79" width="120" height="44" rx="8" fill="#FFFFFF" stroke="none" stroke-width="0" />
<text x="1314" y="107" font-family="Inter, Segoe UI, Arial, sans-serif" font-size="14" font-weight="800" fill="#163B5C" text-anchor="middle" >Sign in</text>
<rect x="58" y="168" width="92" height="30" rx="15" fill="#FFF1E3" stroke="none" stroke-width="0" />
<text x="104" y="188" font-family="Inter, Segoe UI, Arial, sans-serif" font-size="13" font-weight="700" fill="#F57C00" text-anchor="middle" >Must</text>
<text x="58" y="232" font-family="Inter, Segoe UI, Arial, sans-serif" font-size="30" font-weight="900" fill="#1F2933" text-anchor="start" >Homepage</text>
<text x="58" y="262" font-family="Inter, Segoe UI, Arial, sans-serif" font-size="15" font-weight="400" fill="#667085" text-anchor="start" >Main shopping entry with banners, categories, featured products, and seller highlights.</text>
<line x1="58" y1="316" x2="1378" y2="316" stroke="#E5E7EB" stroke-width="1" stroke-linecap="round"/>
<rect x="58" y="336" width="728" height="230" rx="14" fill="#163B5C" stroke="none" stroke-width="0" />
<text x="98" y="390" font-family="Inter, Segoe UI, Arial, sans-serif" font-size="38" font-weight="900" fill="#FFFFFF" text-anchor="start" >1HandIndia marketplace</text>
<text x="98" y="430" font-family="Inter, Segoe UI, Arial, sans-serif" font-size="17" font-weight="400" fill="#E8F0F7" text-anchor="start" >Browse trusted Indian sellers, nearby stores, and</text>
<text x="98" y="456" font-family="Inter, Segoe UI, Arial, sans-serif" font-size="17" font-weight="400" fill="#E8F0F7" text-anchor="start" >B2B-ready products from one serious marketplace</text>
<text x="98" y="482" font-family="Inter, Segoe UI, Arial, sans-serif" font-size="17" font-weight="400" fill="#E8F0F7" text-anchor="start" >portal.</text>
<rect x="98" y="512" width="156" height="44" rx="8" fill="#F57C00" stroke="none" stroke-width="0" />
<text x="176" y="540" font-family="Inter, Segoe UI, Arial, sans-serif" font-size="14" font-weight="800" fill="#FFFFFF" text-anchor="middle" >Shop now</text>
<rect x="270" y="512" width="160" height="44" rx="8" fill="#FFFFFF" stroke="none" stroke-width="0" />
<text x="350" y="540" font-family="Inter, Segoe UI, Arial, sans-serif" font-size="14" font-weight="800" fill="#163B5C" text-anchor="middle" >Seller center</text>
<rect x="826" y="336" width="250" height="230" rx="14" fill="#FFF1E3" stroke="none" stroke-width="0" />
<text x="858" y="382" font-family="Inter, Segoe UI, Arial, sans-serif" font-size="20" font-weight="900" fill="#1F2933" text-anchor="start" >Top categories</text>
<rect x="858" y="414" width="150" height="30" rx="15" fill="#FFFFFF" stroke="none" stroke-width="0" />
<text x="933" y="434" font-family="Inter, Segoe UI, Arial, sans-serif" font-size="13" font-weight="700" fill="#163B5C" text-anchor="middle" >Category 1</text>
<rect x="858" y="444" width="150" height="30" rx="15" fill="#FFFFFF" stroke="none" stroke-width="0" />
<text x="933" y="464" font-family="Inter, Segoe UI, Arial, sans-serif" font-size="13" font-weight="700" fill="#163B5C" text-anchor="middle" >Category 2</text>
<rect x="858" y="474" width="150" height="30" rx="15" fill="#FFFFFF" stroke="none" stroke-width="0" />
<text x="933" y="494" font-family="Inter, Segoe UI, Arial, sans-serif" font-size="13" font-weight="700" fill="#163B5C" text-anchor="middle" >Category 3</text>
<rect x="858" y="504" width="150" height="30" rx="15" fill="#FFFFFF" stroke="none" stroke-width="0" />
<text x="933" y="524" font-family="Inter, Segoe UI, Arial, sans-serif" font-size="13" font-weight="700" fill="#163B5C" text-anchor="middle" >Category 4</text>
<rect x="858" y="534" width="150" height="30" rx="15" fill="#FFFFFF" stroke="none" stroke-width="0" />
<text x="933" y="554" font-family="Inter, Segoe UI, Arial, sans-serif" font-size="13" font-weight="700" fill="#163B5C" text-anchor="middle" >Category 5</text>
<rect x="1106" y="336" width="272" height="230" rx="14" fill="#E9F7F1" stroke="none" stroke-width="0" />
<text x="1138" y="382" font-family="Inter, Segoe UI, Arial, sans-serif" font-size="20" font-weight="900" fill="#1F2933" text-anchor="start" >Local seller focus</text>
<text x="1138" y="420" font-family="Inter, Segoe UI, Arial, sans-serif" font-size="15" font-weight="400" fill="#667085" text-anchor="start" >Nearby stores and local</text>
<text x="1138" y="442" font-family="Inter, Segoe UI, Arial, sans-serif" font-size="15" font-weight="400" fill="#667085" text-anchor="start" >shops use the vendor flow in</text>
<text x="1138" y="464" font-family="Inter, Segoe UI, Arial, sans-serif" font-size="15" font-weight="400" fill="#667085" text-anchor="start" >Phase 1.</text>
<rect x="58" y="604" width="315" height="208" rx="8" fill="#FFFFFF" stroke="#E5E7EB" stroke-width="1" />
<text x="78" y="637" font-family="Inter, Segoe UI, Arial, sans-serif" font-size="16" font-weight="850" fill="#1F2933" text-anchor="start" >Featured product</text>
<rect x="78" y="652" width="52" height="5" rx="3" fill="#F57C00" stroke="none" stroke-width="0" />
<rect x="78" y="680" width="239" height="12" rx="6" fill="#D0D5DD" stroke="none" stroke-width="0" />
<rect x="78" y="714" width="215" height="12" rx="6" fill="#D0D5DD" stroke="none" stroke-width="0" />
<rect x="78" y="748" width="191" height="12" rx="6" fill="#D0D5DD" stroke="none" stroke-width="0" />
<rect x="78" y="782" width="167" height="12" rx="6" fill="#D0D5DD" stroke="none" stroke-width="0" />
<rect x="78" y="764" width="90" height="30" rx="15" fill="#EAF1F7" stroke="none" stroke-width="0" />
<text x="123" y="784" font-family="Inter, Segoe UI, Arial, sans-serif" font-size="13" font-weight="700" fill="#F57C00" text-anchor="middle" >Review</text>
<rect x="393" y="604" width="315" height="208" rx="8" fill="#FFFFFF" stroke="#E5E7EB" stroke-width="1" />
<text x="413" y="637" font-family="Inter, Segoe UI, Arial, sans-serif" font-size="16" font-weight="850" fill="#1F2933" text-anchor="start" >Deal product</text>
<rect x="413" y="652" width="52" height="5" rx="3" fill="#F57C00" stroke="none" stroke-width="0" />
<rect x="413" y="680" width="239" height="12" rx="6" fill="#D0D5DD" stroke="none" stroke-width="0" />
<rect x="413" y="714" width="215" height="12" rx="6" fill="#D0D5DD" stroke="none" stroke-width="0" />
<rect x="413" y="748" width="191" height="12" rx="6" fill="#D0D5DD" stroke="none" stroke-width="0" />
<rect x="413" y="782" width="167" height="12" rx="6" fill="#D0D5DD" stroke="none" stroke-width="0" />
<rect x="413" y="764" width="90" height="30" rx="15" fill="#EAF1F7" stroke="none" stroke-width="0" />
<text x="458" y="784" font-family="Inter, Segoe UI, Arial, sans-serif" font-size="13" font-weight="700" fill="#F57C00" text-anchor="middle" >Review</text>
<rect x="728" y="604" width="315" height="208" rx="8" fill="#FFFFFF" stroke="#E5E7EB" stroke-width="1" />
<text x="748" y="637" font-family="Inter, Segoe UI, Arial, sans-serif" font-size="16" font-weight="850" fill="#1F2933" text-anchor="start" >New arrival</text>
<rect x="748" y="652" width="52" height="5" rx="3" fill="#F57C00" stroke="none" stroke-width="0" />
<rect x="748" y="680" width="239" height="12" rx="6" fill="#D0D5DD" stroke="none" stroke-width="0" />
<rect x="748" y="714" width="215" height="12" rx="6" fill="#D0D5DD" stroke="none" stroke-width="0" />
<rect x="748" y="748" width="191" height="12" rx="6" fill="#D0D5DD" stroke="none" stroke-width="0" />
<rect x="748" y="782" width="167" height="12" rx="6" fill="#D0D5DD" stroke="none" stroke-width="0" />
<rect x="748" y="764" width="90" height="30" rx="15" fill="#EAF1F7" stroke="none" stroke-width="0" />
<text x="793" y="784" font-family="Inter, Segoe UI, Arial, sans-serif" font-size="13" font-weight="700" fill="#F57C00" text-anchor="middle" >Review</text>
<rect x="1063" y="604" width="315" height="208" rx="8" fill="#FFFFFF" stroke="#E5E7EB" stroke-width="1" />
<text x="1083" y="637" font-family="Inter, Segoe UI, Arial, sans-serif" font-size="16" font-weight="850" fill="#1F2933" text-anchor="start" >B2B enquiry item</text>
<rect x="1083" y="652" width="52" height="5" rx="3" fill="#F57C00" stroke="none" stroke-width="0" />
<rect x="1083" y="680" width="239" height="12" rx="6" fill="#D0D5DD" stroke="none" stroke-width="0" />
<rect x="1083" y="714" width="215" height="12" rx="6" fill="#D0D5DD" stroke="none" stroke-width="0" />
<rect x="1083" y="748" width="191" height="12" rx="6" fill="#D0D5DD" stroke="none" stroke-width="0" />
<rect x="1083" y="782" width="167" height="12" rx="6" fill="#D0D5DD" stroke="none" stroke-width="0" />
<rect x="1083" y="764" width="90" height="30" rx="15" fill="#EAF1F7" stroke="none" stroke-width="0" />
<text x="1128" y="784" font-family="Inter, Segoe UI, Arial, sans-serif" font-size="13" font-weight="700" fill="#F57C00" text-anchor="middle" >Review</text>
<text x="720" y="894" font-family="Inter, Segoe UI, Arial, sans-serif" font-size="12" font-weight="700" fill="#667085" text-anchor="middle" >1HandIndia UI mockup image - Phase 1 frozen screen list - Not a coded screenshot</text>
</svg>