<?xml version="1.0" encoding="UTF-8"?>
<svg xmlns="http://www.w3.org/2000/svg" width="1440" height="960" viewBox="0 0 1440 960" role="img" aria-labelledby="title desc">
<title id="title">1HandIndia - Cart</title>
<desc id="desc">Phase 1 UI mockup for Cart, route /cart</desc>
<defs><filter id="shadow" x="-20%" y="-20%" width="140%" height="140%"><feDropShadow dx="0" dy="10" stdDeviation="14" flood-color="#101828" flood-opacity="0.12"/></filter></defs>
<rect x="0" y="0" width="1440" height="960" rx="0" fill="#FAF7F0" stroke="none" stroke-width="0" />
<rect x="24" y="20" width="1392" height="900" rx="18" fill="#FFFFFF" stroke="#D8DEE8" stroke-width="1" filter="url(#shadow)"/>
<rect x="24" y="20" width="1392" height="42" rx="18" fill="#F8FAFC" stroke="#D8DEE8" stroke-width="1" />
<circle cx="52" cy="41" r="6" fill="#FF5F56" stroke="none" stroke-width="1"/>
<circle cx="74" cy="41" r="6" fill="#FFBD2E" stroke="none" stroke-width="1"/>
<circle cx="96" cy="41" r="6" fill="#27C93F" stroke="none" stroke-width="1"/>
<text x="122" y="47" font-family="Inter, Segoe UI, Arial, sans-serif" font-size="13" font-weight="700" fill="#667085" text-anchor="start" >1HandIndia Phase 1 UI mockup</text>
<text x="1380" y="47" font-family="Inter, Segoe UI, Arial, sans-serif" font-size="13" font-weight="600" fill="#667085" text-anchor="end" >/cart</text>
<rect x="24" y="62" width="1392" height="76" rx="0" fill="#163B5C" stroke="none" stroke-width="0" />
<text x="58" y="111" font-family="Inter, Segoe UI, Arial, sans-serif" font-size="28" font-weight="900" fill="#FFFFFF" text-anchor="start" >1HandIndia</text>
<rect x="212" y="82" width="520" height="38" rx="8" fill="#FFFFFF" stroke="none" stroke-width="0" />
<text x="236" y="107" font-family="Inter, Segoe UI, Arial, sans-serif" font-size="13" font-weight="500" fill="#667085" text-anchor="start" >Search products, stores, categories</text>
<rect x="768" y="86" width="112" height="30" rx="15" fill="#274B68" stroke="none" stroke-width="0" />
<text x="824" y="106" font-family="Inter, Segoe UI, Arial, sans-serif" font-size="13" font-weight="700" fill="#FFFFFF" text-anchor="middle" >Categories</text>
<rect x="898" y="86" width="88" height="30" rx="15" fill="#274B68" stroke="none" stroke-width="0" />
<text x="942" y="106" font-family="Inter, Segoe UI, Arial, sans-serif" font-size="13" font-weight="700" fill="#FFFFFF" text-anchor="middle" >Stores</text>
<rect x="1002" y="86" width="72" height="30" rx="15" fill="#274B68" stroke="none" stroke-width="0" />
<text x="1038" y="106" font-family="Inter, Segoe UI, Arial, sans-serif" font-size="13" font-weight="700" fill="#FFFFFF" text-anchor="middle" >B2B</text>
<rect x="1132" y="79" width="104" height="44" rx="8" fill="#F57C00" stroke="none" stroke-width="0" />
<text x="1184" y="107" font-family="Inter, Segoe UI, Arial, sans-serif" font-size="14" font-weight="800" fill="#FFFFFF" text-anchor="middle" >Cart</text>
<rect x="1254" y="79" width="120" height="44" rx="8" fill="#FFFFFF" stroke="none" stroke-width="0" />
<text x="1314" y="107" font-family="Inter, Segoe UI, Arial, sans-serif" font-size="14" font-weight="800" fill="#163B5C" text-anchor="middle" >Sign in</text>
<rect x="58" y="168" width="92" height="30" rx="15" fill="#FFF1E3" stroke="none" stroke-width="0" />
<text x="104" y="188" font-family="Inter, Segoe UI, Arial, sans-serif" font-size="13" font-weight="700" fill="#F57C00" text-anchor="middle" >Must</text>
<text x="58" y="232" font-family="Inter, Segoe UI, Arial, sans-serif" font-size="30" font-weight="900" fill="#1F2933" text-anchor="start" >Cart</text>
<text x="58" y="262" font-family="Inter, Segoe UI, Arial, sans-serif" font-size="15" font-weight="400" fill="#667085" text-anchor="start" >Review cart items, update quantity, remove items.</text>
<line x1="58" y1="316" x2="1378" y2="316" stroke="#E5E7EB" stroke-width="1" stroke-linecap="round"/>
<rect x="58" y="334" width="118" height="30" rx="15" fill="#EAF1F7" stroke="none" stroke-width="0" />
<text x="117" y="354" font-family="Inter, Segoe UI, Arial, sans-serif" font-size="13" font-weight="700" fill="#163B5C" text-anchor="middle" >Cart</text>
<rect x="190" y="334" width="118" height="30" rx="15" fill="#EAF1F7" stroke="none" stroke-width="0" />
<text x="249" y="354" font-family="Inter, Segoe UI, Arial, sans-serif" font-size="13" font-weight="700" fill="#163B5C" text-anchor="middle" >Review</text>
<rect x="322" y="334" width="118" height="30" rx="15" fill="#EAF1F7" stroke="none" stroke-width="0" />
<text x="381" y="354" font-family="Inter, Segoe UI, Arial, sans-serif" font-size="13" font-weight="700" fill="#163B5C" text-anchor="middle" >Checkout</text>
<rect x="58" y="392" width="820" height="350" rx="8" fill="#FFFFFF" stroke="#E5E7EB" stroke-width="1" />
<text x="88" y="432" font-family="Inter, Segoe UI, Arial, sans-serif" font-size="22" font-weight="900" fill="#1F2933" text-anchor="start" >Cart</text>
<rect x="88" y="476" width="736" height="44" rx="6" fill="#EAF1F7" stroke="none" stroke-width="0" />
<text x="106" y="504" font-family="Inter, Segoe UI, Arial, sans-serif" font-size="13" font-weight="800" fill="#163B5C" text-anchor="start" >Product</text>
<text x="290" y="504" font-family="Inter, Segoe UI, Arial, sans-serif" font-size="13" font-weight="800" fill="#163B5C" text-anchor="start" >Seller</text>
<text x="474" y="504" font-family="Inter, Segoe UI, Arial, sans-serif" font-size="13" font-weight="800" fill="#163B5C" text-anchor="start" >Qty</text>
<text x="658" y="504" font-family="Inter, Segoe UI, Arial, sans-serif" font-size="13" font-weight="800" fill="#163B5C" text-anchor="start" >Amount</text>
<rect x="88" y="520" width="736" height="50" rx="0" fill="#FFFFFF" stroke="#E5E7EB" stroke-width="1" />
<rect x="106" y="538" width="136" height="10" rx="5" fill="#D0D5DD" stroke="none" stroke-width="0" />
<rect x="290" y="538" width="131" height="10" rx="5" fill="#D0D5DD" stroke="none" stroke-width="0" />
<rect x="474" y="538" width="126" height="10" rx="5" fill="#D0D5DD" stroke="none" stroke-width="0" />
<rect x="658" y="538" width="121" height="10" rx="5" fill="#D0D5DD" stroke="none" stroke-width="0" />
<rect x="88" y="570" width="736" height="50" rx="0" fill="#FFFFFF" stroke="#E5E7EB" stroke-width="1" />
<rect x="106" y="588" width="131" height="10" rx="5" fill="#D0D5DD" stroke="none" stroke-width="0" />
<rect x="290" y="588" width="126" height="10" rx="5" fill="#D0D5DD" stroke="none" stroke-width="0" />
<rect x="474" y="588" width="121" height="10" rx="5" fill="#D0D5DD" stroke="none" stroke-width="0" />
<rect x="658" y="588" width="116" height="10" rx="5" fill="#D0D5DD" stroke="none" stroke-width="0" />
<rect x="708" y="581" width="84" height="30" rx="15" fill="#E9F7F1" stroke="none" stroke-width="0" />
<text x="750" y="601" font-family="Inter, Segoe UI, Arial, sans-serif" font-size="13" font-weight="700" fill="#0F8A5F" text-anchor="middle" >Active</text>
<rect x="88" y="620" width="736" height="50" rx="0" fill="#FFFFFF" stroke="#E5E7EB" stroke-width="1" />
<rect x="106" y="638" width="126" height="10" rx="5" fill="#D0D5DD" stroke="none" stroke-width="0" />
<rect x="290" y="638" width="121" height="10" rx="5" fill="#D0D5DD" stroke="none" stroke-width="0" />
<rect x="474" y="638" width="116" height="10" rx="5" fill="#D0D5DD" stroke="none" stroke-width="0" />
<rect x="658" y="638" width="111" height="10" rx="5" fill="#D0D5DD" stroke="none" stroke-width="0" />
<rect x="88" y="670" width="736" height="50" rx="0" fill="#FFFFFF" stroke="#E5E7EB" stroke-width="1" />
<rect x="106" y="688" width="121" height="10" rx="5" fill="#D0D5DD" stroke="none" stroke-width="0" />
<rect x="290" y="688" width="116" height="10" rx="5" fill="#D0D5DD" stroke="none" stroke-width="0" />
<rect x="474" y="688" width="111" height="10" rx="5" fill="#D0D5DD" stroke="none" stroke-width="0" />
<rect x="658" y="688" width="106" height="10" rx="5" fill="#D0D5DD" stroke="none" stroke-width="0" />
<rect x="708" y="681" width="84" height="30" rx="15" fill="#E9F7F1" stroke="none" stroke-width="0" />
<text x="750" y="701" font-family="Inter, Segoe UI, Arial, sans-serif" font-size="13" font-weight="700" fill="#0F8A5F" text-anchor="middle" >Active</text>
<rect x="88" y="720" width="736" height="50" rx="0" fill="#FFFFFF" stroke="#E5E7EB" stroke-width="1" />
<rect x="106" y="738" width="116" height="10" rx="5" fill="#D0D5DD" stroke="none" stroke-width="0" />
<rect x="290" y="738" width="111" height="10" rx="5" fill="#D0D5DD" stroke="none" stroke-width="0" />
<rect x="474" y="738" width="106" height="10" rx="5" fill="#D0D5DD" stroke="none" stroke-width="0" />
<rect x="658" y="738" width="101" height="10" rx="5" fill="#D0D5DD" stroke="none" stroke-width="0" />
<rect x="920" y="392" width="428" height="350" rx="8" fill="#FFF1E3" stroke="none" stroke-width="0" />
<text x="952" y="436" font-family="Inter, Segoe UI, Arial, sans-serif" font-size="22" font-weight="900" fill="#1F2933" text-anchor="start" >Price summary</text>
<text x="952" y="486" font-family="Inter, Segoe UI, Arial, sans-serif" font-size="15" font-weight="700" fill="#1F2933" text-anchor="start" >Subtotal</text>
<text x="1294" y="486" font-family="Inter, Segoe UI, Arial, sans-serif" font-size="15" font-weight="800" fill="#1F2933" text-anchor="end" >INR 0</text>
<text x="952" y="534" font-family="Inter, Segoe UI, Arial, sans-serif" font-size="15" font-weight="700" fill="#1F2933" text-anchor="start" >Shipping</text>
<text x="1294" y="534" font-family="Inter, Segoe UI, Arial, sans-serif" font-size="15" font-weight="800" fill="#1F2933" text-anchor="end" >INR 0</text>
<text x="952" y="582" font-family="Inter, Segoe UI, Arial, sans-serif" font-size="15" font-weight="700" fill="#1F2933" text-anchor="start" >Tax / fees</text>
<text x="1294" y="582" font-family="Inter, Segoe UI, Arial, sans-serif" font-size="15" font-weight="800" fill="#1F2933" text-anchor="end" >INR 0</text>
<text x="952" y="630" font-family="Inter, Segoe UI, Arial, sans-serif" font-size="15" font-weight="700" fill="#1F2933" text-anchor="start" >Total</text>
<text x="1294" y="630" font-family="Inter, Segoe UI, Arial, sans-serif" font-size="15" font-weight="800" fill="#1F2933" text-anchor="end" >INR 0</text>
<rect x="952" y="674" width="180" height="44" rx="8" fill="#F57C00" stroke="none" stroke-width="0" />
<text x="1042" y="702" font-family="Inter, Segoe UI, Arial, sans-serif" font-size="14" font-weight="800" fill="#FFFFFF" text-anchor="middle" >Continue</text>
<text x="720" y="894" font-family="Inter, Segoe UI, Arial, sans-serif" font-size="12" font-weight="700" fill="#667085" text-anchor="middle" >1HandIndia UI mockup image - Phase 1 frozen screen list - Not a coded screenshot</text>
</svg>