<?xml version="1.0" encoding="UTF-8"?>
<svg xmlns="http://www.w3.org/2000/svg" width="1440" height="960" viewBox="0 0 1440 960" role="img" aria-labelledby="title desc">
<title id="title">1HandIndia - Seller Policy</title>
<desc id="desc">Phase 1 UI mockup for Seller Policy, route /seller-policy</desc>
<defs><filter id="shadow" x="-20%" y="-20%" width="140%" height="140%"><feDropShadow dx="0" dy="10" stdDeviation="14" flood-color="#101828" flood-opacity="0.12"/></filter></defs>
<rect x="0" y="0" width="1440" height="960" rx="0" fill="#FAF7F0" stroke="none" stroke-width="0" />
<rect x="24" y="20" width="1392" height="900" rx="18" fill="#FFFFFF" stroke="#D8DEE8" stroke-width="1" filter="url(#shadow)"/>
<rect x="24" y="20" width="1392" height="42" rx="18" fill="#F8FAFC" stroke="#D8DEE8" stroke-width="1" />
<circle cx="52" cy="41" r="6" fill="#FF5F56" stroke="none" stroke-width="1"/>
<circle cx="74" cy="41" r="6" fill="#FFBD2E" stroke="none" stroke-width="1"/>
<circle cx="96" cy="41" r="6" fill="#27C93F" stroke="none" stroke-width="1"/>
<text x="122" y="47" font-family="Inter, Segoe UI, Arial, sans-serif" font-size="13" font-weight="700" fill="#667085" text-anchor="start" >1HandIndia Phase 1 UI mockup</text>
<text x="1380" y="47" font-family="Inter, Segoe UI, Arial, sans-serif" font-size="13" font-weight="600" fill="#667085" text-anchor="end" >/seller-policy</text>
<rect x="24" y="62" width="1392" height="76" rx="0" fill="#163B5C" stroke="none" stroke-width="0" />
<text x="58" y="111" font-family="Inter, Segoe UI, Arial, sans-serif" font-size="28" font-weight="900" fill="#FFFFFF" text-anchor="start" >1HandIndia</text>
<rect x="212" y="82" width="520" height="38" rx="8" fill="#FFFFFF" stroke="none" stroke-width="0" />
<text x="236" y="107" font-family="Inter, Segoe UI, Arial, sans-serif" font-size="13" font-weight="500" fill="#667085" text-anchor="start" >Search products, stores, categories</text>
<rect x="768" y="86" width="112" height="30" rx="15" fill="#274B68" stroke="none" stroke-width="0" />
<text x="824" y="106" font-family="Inter, Segoe UI, Arial, sans-serif" font-size="13" font-weight="700" fill="#FFFFFF" text-anchor="middle" >Categories</text>
<rect x="898" y="86" width="88" height="30" rx="15" fill="#274B68" stroke="none" stroke-width="0" />
<text x="942" y="106" font-family="Inter, Segoe UI, Arial, sans-serif" font-size="13" font-weight="700" fill="#FFFFFF" text-anchor="middle" >Stores</text>
<rect x="1002" y="86" width="72" height="30" rx="15" fill="#274B68" stroke="none" stroke-width="0" />
<text x="1038" y="106" font-family="Inter, Segoe UI, Arial, sans-serif" font-size="13" font-weight="700" fill="#FFFFFF" text-anchor="middle" >B2B</text>
<rect x="1132" y="79" width="104" height="44" rx="8" fill="#F57C00" stroke="none" stroke-width="0" />
<text x="1184" y="107" font-family="Inter, Segoe UI, Arial, sans-serif" font-size="14" font-weight="800" fill="#FFFFFF" text-anchor="middle" >Cart</text>
<rect x="1254" y="79" width="120" height="44" rx="8" fill="#FFFFFF" stroke="none" stroke-width="0" />
<text x="1314" y="107" font-family="Inter, Segoe UI, Arial, sans-serif" font-size="14" font-weight="800" fill="#163B5C" text-anchor="middle" >Sign in</text>
<rect x="58" y="168" width="92" height="30" rx="15" fill="#FFF1E3" stroke="none" stroke-width="0" />
<text x="104" y="188" font-family="Inter, Segoe UI, Arial, sans-serif" font-size="13" font-weight="700" fill="#F57C00" text-anchor="middle" >Should</text>
<text x="58" y="232" font-family="Inter, Segoe UI, Arial, sans-serif" font-size="30" font-weight="900" fill="#1F2933" text-anchor="start" >Seller Policy</text>
<text x="58" y="262" font-family="Inter, Segoe UI, Arial, sans-serif" font-size="15" font-weight="400" fill="#667085" text-anchor="start" >Seller rules if content is provided.</text>
<line x1="58" y1="316" x2="1378" y2="316" stroke="#E5E7EB" stroke-width="1" stroke-linecap="round"/>
<rect x="58" y="342" width="860" height="420" rx="8" fill="#FFFFFF" stroke="#E5E7EB" stroke-width="1" />
<text x="92" y="386" font-family="Inter, Segoe UI, Arial, sans-serif" font-size="28" font-weight="900" fill="#1F2933" text-anchor="start" >Seller Policy</text>
<rect x="92" y="430" width="700" height="12" rx="6" fill="#D0D5DD" stroke="none" stroke-width="0" />
<rect x="92" y="468" width="630" height="12" rx="6" fill="#D0D5DD" stroke="none" stroke-width="0" />
<rect x="92" y="506" width="560" height="12" rx="6" fill="#D0D5DD" stroke="none" stroke-width="0" />
<rect x="92" y="544" width="700" height="12" rx="6" fill="#D0D5DD" stroke="none" stroke-width="0" />
<rect x="92" y="582" width="630" height="12" rx="6" fill="#D0D5DD" stroke="none" stroke-width="0" />
<rect x="92" y="620" width="560" height="12" rx="6" fill="#D0D5DD" stroke="none" stroke-width="0" />
<rect x="92" y="658" width="700" height="12" rx="6" fill="#D0D5DD" stroke="none" stroke-width="0" />
<rect x="92" y="696" width="630" height="12" rx="6" fill="#D0D5DD" stroke="none" stroke-width="0" />
<rect x="960" y="342" width="388" height="420" rx="8" fill="#EAF1F7" stroke="none" stroke-width="0" />
<text x="994" y="386" font-family="Inter, Segoe UI, Arial, sans-serif" font-size="22" font-weight="900" fill="#1F2933" text-anchor="start" >CMS controlled page</text>
<text x="994" y="424" font-family="Inter, Segoe UI, Arial, sans-serif" font-size="15" font-weight="400" fill="#667085" text-anchor="start" >Seller rules if content is</text>
<text x="994" y="447" font-family="Inter, Segoe UI, Arial, sans-serif" font-size="15" font-weight="400" fill="#667085" text-anchor="start" >provided.</text>
<rect x="994" y="548" width="310" height="150" rx="8" fill="#FFFFFF" stroke="#E5E7EB" stroke-width="1" />
<text x="1014" y="581" font-family="Inter, Segoe UI, Arial, sans-serif" font-size="16" font-weight="850" fill="#1F2933" text-anchor="start" >Admin edit support</text>
<rect x="1014" y="596" width="52" height="5" rx="3" fill="#163B5C" stroke="none" stroke-width="0" />
<rect x="1014" y="624" width="234" height="12" rx="6" fill="#D0D5DD" stroke="none" stroke-width="0" />
<rect x="1014" y="658" width="210" height="12" rx="6" fill="#D0D5DD" stroke="none" stroke-width="0" />
<rect x="1014" y="692" width="186" height="12" rx="6" fill="#D0D5DD" stroke="none" stroke-width="0" />
<rect x="1014" y="726" width="162" height="12" rx="6" fill="#D0D5DD" stroke="none" stroke-width="0" />
<rect x="1014" y="650" width="90" height="30" rx="15" fill="#EAF1F7" stroke="none" stroke-width="0" />
<text x="1059" y="670" font-family="Inter, Segoe UI, Arial, sans-serif" font-size="13" font-weight="700" fill="#163B5C" text-anchor="middle" >Review</text>
<text x="720" y="894" font-family="Inter, Segoe UI, Arial, sans-serif" font-size="12" font-weight="700" fill="#667085" text-anchor="middle" >1HandIndia UI mockup image - Phase 1 frozen screen list - Not a coded screenshot</text>
</svg>