<?xml version="1.0" encoding="UTF-8"?>
<svg xmlns="http://www.w3.org/2000/svg" width="1440" height="960" viewBox="0 0 1440 960" role="img" aria-labelledby="title desc">
<title id="title">1HandIndia - Sales Report</title>
<desc id="desc">Phase 1 UI mockup for Sales Report, route /admin/reports/sales</desc>
<defs><filter id="shadow" x="-20%" y="-20%" width="140%" height="140%"><feDropShadow dx="0" dy="10" stdDeviation="14" flood-color="#101828" flood-opacity="0.12"/></filter></defs>
<rect x="0" y="0" width="1440" height="960" rx="0" fill="#FAF7F0" stroke="none" stroke-width="0" />
<rect x="24" y="20" width="1392" height="900" rx="18" fill="#FFFFFF" stroke="#D8DEE8" stroke-width="1" filter="url(#shadow)"/>
<rect x="24" y="20" width="1392" height="42" rx="18" fill="#F8FAFC" stroke="#D8DEE8" stroke-width="1" />
<circle cx="52" cy="41" r="6" fill="#FF5F56" stroke="none" stroke-width="1"/>
<circle cx="74" cy="41" r="6" fill="#FFBD2E" stroke="none" stroke-width="1"/>
<circle cx="96" cy="41" r="6" fill="#27C93F" stroke="none" stroke-width="1"/>
<text x="122" y="47" font-family="Inter, Segoe UI, Arial, sans-serif" font-size="13" font-weight="700" fill="#667085" text-anchor="start" >1HandIndia Phase 1 UI mockup</text>
<text x="1380" y="47" font-family="Inter, Segoe UI, Arial, sans-serif" font-size="13" font-weight="600" fill="#667085" text-anchor="end" >/admin/reports/sales</text>
<rect x="24" y="62" width="266" height="858" rx="0" fill="#163B5C" stroke="none" stroke-width="0" />
<text x="58" y="112" font-family="Inter, Segoe UI, Arial, sans-serif" font-size="27" font-weight="900" fill="#FFFFFF" text-anchor="start" >1HandIndia</text>
<rect x="58" y="132" width="172" height="30" rx="15" fill="#FFFFFF22" stroke="none" stroke-width="0" />
<text x="144" y="152" font-family="Inter, Segoe UI, Arial, sans-serif" font-size="13" font-weight="700" fill="#FFFFFF" text-anchor="middle" >Admin Panel</text>
<text x="68" y="196" font-family="Inter, Segoe UI, Arial, sans-serif" font-size="14" font-weight="700" fill="#FFFFFF" text-anchor="start" >Dashboard</text>
<text x="68" y="246" font-family="Inter, Segoe UI, Arial, sans-serif" font-size="14" font-weight="700" fill="#FFFFFF" text-anchor="start" >Customers</text>
<text x="68" y="296" font-family="Inter, Segoe UI, Arial, sans-serif" font-size="14" font-weight="700" fill="#FFFFFF" text-anchor="start" >Sellers</text>
<text x="68" y="346" font-family="Inter, Segoe UI, Arial, sans-serif" font-size="14" font-weight="700" fill="#FFFFFF" text-anchor="start" >Products</text>
<text x="68" y="396" font-family="Inter, Segoe UI, Arial, sans-serif" font-size="14" font-weight="700" fill="#FFFFFF" text-anchor="start" >Orders</text>
<text x="68" y="446" font-family="Inter, Segoe UI, Arial, sans-serif" font-size="14" font-weight="700" fill="#FFFFFF" text-anchor="start" >B2B</text>
<text x="68" y="496" font-family="Inter, Segoe UI, Arial, sans-serif" font-size="14" font-weight="700" fill="#FFFFFF" text-anchor="start" >CMS</text>
<text x="68" y="546" font-family="Inter, Segoe UI, Arial, sans-serif" font-size="14" font-weight="700" fill="#FFFFFF" text-anchor="start" >Reports</text>
<text x="68" y="596" font-family="Inter, Segoe UI, Arial, sans-serif" font-size="14" font-weight="700" fill="#FFFFFF" text-anchor="start" >Settings</text>
<text x="68" y="646" font-family="Inter, Segoe UI, Arial, sans-serif" font-size="14" font-weight="700" fill="#FFFFFF" text-anchor="start" >Audit Logs</text>
<text x="58" y="878" font-family="Inter, Segoe UI, Arial, sans-serif" font-size="12" font-weight="600" fill="#DCE8F2" text-anchor="start" >Phase 1 web portal</text>
<rect x="290" y="62" width="1126" height="76" rx="0" fill="#F8FAFC" stroke="#E5E7EB" stroke-width="1" />
<text x="326" y="106" font-family="Inter, Segoe UI, Arial, sans-serif" font-size="13" font-weight="700" fill="#667085" text-anchor="start" >/admin/reports/sales</text>
<rect x="1134" y="84" width="86" height="30" rx="15" fill="#E9F7F1" stroke="none" stroke-width="0" />
<text x="1177" y="104" font-family="Inter, Segoe UI, Arial, sans-serif" font-size="13" font-weight="700" fill="#0F8A5F" text-anchor="middle" >Must</text>
<circle cx="1280" cy="100" r="18" fill="#F57C00" stroke="none" stroke-width="1"/>
<text x="1280" y="106" font-family="Inter, Segoe UI, Arial, sans-serif" font-size="12" font-weight="900" fill="#FFFFFF" text-anchor="middle" >1HI</text>
<text x="1312" y="105" font-family="Inter, Segoe UI, Arial, sans-serif" font-size="13" font-weight="700" fill="#1F2933" text-anchor="start" >Logged in role</text>
<rect x="326" y="168" width="92" height="30" rx="15" fill="#FFF1E3" stroke="none" stroke-width="0" />
<text x="372" y="188" font-family="Inter, Segoe UI, Arial, sans-serif" font-size="13" font-weight="700" fill="#F57C00" text-anchor="middle" >Must</text>
<text x="326" y="232" font-family="Inter, Segoe UI, Arial, sans-serif" font-size="30" font-weight="900" fill="#1F2933" text-anchor="start" >Sales Report</text>
<text x="326" y="262" font-family="Inter, Segoe UI, Arial, sans-serif" font-size="15" font-weight="400" fill="#667085" text-anchor="start" >Date-wise sales summary.</text>
<line x1="326" y1="316" x2="1348" y2="316" stroke="#E5E7EB" stroke-width="1" stroke-linecap="round"/>
<rect x="326" y="334" width="1022" height="66" rx="8" fill="#F8FAFC" stroke="#E5E7EB" stroke-width="1" />
<rect x="356" y="352" width="118" height="30" rx="15" fill="#EAF1F7" stroke="none" stroke-width="0" />
<text x="415" y="372" font-family="Inter, Segoe UI, Arial, sans-serif" font-size="13" font-weight="700" fill="#163B5C" text-anchor="middle" >Date range</text>
<rect x="490" y="352" width="90" height="30" rx="15" fill="#EAF1F7" stroke="none" stroke-width="0" />
<text x="535" y="372" font-family="Inter, Segoe UI, Arial, sans-serif" font-size="13" font-weight="700" fill="#163B5C" text-anchor="middle" >Seller</text>
<rect x="596" y="352" width="94" height="30" rx="15" fill="#FFF1E3" stroke="none" stroke-width="0" />
<text x="643" y="372" font-family="Inter, Segoe UI, Arial, sans-serif" font-size="13" font-weight="700" fill="#F57C00" text-anchor="middle" >Export</text>
<rect x="326" y="430" width="626" height="288" rx="8" fill="#FFFFFF" stroke="#E5E7EB" stroke-width="1" />
<text x="346" y="462" font-family="Inter, Segoe UI, Arial, sans-serif" font-size="15" font-weight="800" fill="#1F2933" text-anchor="start" >Trend view</text>
<rect x="356" y="648" width="28" height="36" rx="5" fill="#F57C00" stroke="none" stroke-width="0" />
<rect x="408" y="617" width="28" height="67" rx="5" fill="#F57C00" stroke="none" stroke-width="0" />
<rect x="460" y="586" width="28" height="98" rx="5" fill="#F57C00" stroke="none" stroke-width="0" />
<rect x="512" y="555" width="28" height="129" rx="5" fill="#F57C00" stroke="none" stroke-width="0" />
<rect x="564" y="634" width="28" height="50" rx="5" fill="#F57C00" stroke="none" stroke-width="0" />
<rect x="616" y="603" width="28" height="81" rx="5" fill="#F57C00" stroke="none" stroke-width="0" />
<rect x="668" y="572" width="28" height="112" rx="5" fill="#F57C00" stroke="none" stroke-width="0" />
<rect x="720" y="541" width="28" height="143" rx="5" fill="#F57C00" stroke="none" stroke-width="0" />
<line x1="350" y1="684" x2="928" y2="684" stroke="#E5E7EB" stroke-width="2" stroke-linecap="round"/>
<rect x="978" y="430" width="370" height="288" rx="8" fill="#FFFFFF" stroke="#E5E7EB" stroke-width="1" />
<text x="998" y="463" font-family="Inter, Segoe UI, Arial, sans-serif" font-size="16" font-weight="850" fill="#1F2933" text-anchor="start" >Summary metrics</text>
<rect x="998" y="478" width="52" height="5" rx="3" fill="#0F8A5F" stroke="none" stroke-width="0" />
<rect x="998" y="506" width="294" height="12" rx="6" fill="#D0D5DD" stroke="none" stroke-width="0" />
<rect x="998" y="540" width="270" height="12" rx="6" fill="#D0D5DD" stroke="none" stroke-width="0" />
<rect x="998" y="574" width="246" height="12" rx="6" fill="#D0D5DD" stroke="none" stroke-width="0" />
<rect x="998" y="608" width="222" height="12" rx="6" fill="#D0D5DD" stroke="none" stroke-width="0" />
<rect x="998" y="670" width="90" height="30" rx="15" fill="#EAF1F7" stroke="none" stroke-width="0" />
<text x="1043" y="690" font-family="Inter, Segoe UI, Arial, sans-serif" font-size="13" font-weight="700" fill="#0F8A5F" text-anchor="middle" >Review</text>
<text x="720" y="894" font-family="Inter, Segoe UI, Arial, sans-serif" font-size="12" font-weight="700" fill="#667085" text-anchor="middle" >1HandIndia UI mockup image - Phase 1 frozen screen list - Not a coded screenshot</text>
</svg>