<?xml version="1.0" encoding="UTF-8"?>
<svg xmlns="http://www.w3.org/2000/svg" width="1440" height="960" viewBox="0 0 1440 960" role="img" aria-labelledby="title desc">
<title id="title">1HandIndia - Add Product</title>
<desc id="desc">Phase 1 UI mockup for Add Product, route /seller/products/new</desc>
<defs><filter id="shadow" x="-20%" y="-20%" width="140%" height="140%"><feDropShadow dx="0" dy="10" stdDeviation="14" flood-color="#101828" flood-opacity="0.12"/></filter></defs>
<rect x="0" y="0" width="1440" height="960" rx="0" fill="#FAF7F0" stroke="none" stroke-width="0" />
<rect x="24" y="20" width="1392" height="900" rx="18" fill="#FFFFFF" stroke="#D8DEE8" stroke-width="1" filter="url(#shadow)"/>
<rect x="24" y="20" width="1392" height="42" rx="18" fill="#F8FAFC" stroke="#D8DEE8" stroke-width="1" />
<circle cx="52" cy="41" r="6" fill="#FF5F56" stroke="none" stroke-width="1"/>
<circle cx="74" cy="41" r="6" fill="#FFBD2E" stroke="none" stroke-width="1"/>
<circle cx="96" cy="41" r="6" fill="#27C93F" stroke="none" stroke-width="1"/>
<text x="122" y="47" font-family="Inter, Segoe UI, Arial, sans-serif" font-size="13" font-weight="700" fill="#667085" text-anchor="start" >1HandIndia Phase 1 UI mockup</text>
<text x="1380" y="47" font-family="Inter, Segoe UI, Arial, sans-serif" font-size="13" font-weight="600" fill="#667085" text-anchor="end" >/seller/products/new</text>
<rect x="24" y="62" width="266" height="858" rx="0" fill="#123C32" stroke="none" stroke-width="0" />
<text x="58" y="112" font-family="Inter, Segoe UI, Arial, sans-serif" font-size="27" font-weight="900" fill="#FFFFFF" text-anchor="start" >1HandIndia</text>
<rect x="58" y="132" width="172" height="30" rx="15" fill="#FFFFFF22" stroke="none" stroke-width="0" />
<text x="144" y="152" font-family="Inter, Segoe UI, Arial, sans-serif" font-size="13" font-weight="700" fill="#FFFFFF" text-anchor="middle" >Seller Center</text>
<text x="68" y="196" font-family="Inter, Segoe UI, Arial, sans-serif" font-size="14" font-weight="700" fill="#FFFFFF" text-anchor="start" >Dashboard</text>
<text x="68" y="246" font-family="Inter, Segoe UI, Arial, sans-serif" font-size="14" font-weight="700" fill="#FFFFFF" text-anchor="start" >Store Profile</text>
<text x="68" y="296" font-family="Inter, Segoe UI, Arial, sans-serif" font-size="14" font-weight="700" fill="#FFFFFF" text-anchor="start" >Products</text>
<text x="68" y="346" font-family="Inter, Segoe UI, Arial, sans-serif" font-size="14" font-weight="700" fill="#FFFFFF" text-anchor="start" >Orders</text>
<text x="68" y="396" font-family="Inter, Segoe UI, Arial, sans-serif" font-size="14" font-weight="700" fill="#FFFFFF" text-anchor="start" >Delivery</text>
<text x="68" y="446" font-family="Inter, Segoe UI, Arial, sans-serif" font-size="14" font-weight="700" fill="#FFFFFF" text-anchor="start" >B2B Enquiries</text>
<text x="68" y="496" font-family="Inter, Segoe UI, Arial, sans-serif" font-size="14" font-weight="700" fill="#FFFFFF" text-anchor="start" >Reports</text>
<text x="58" y="878" font-family="Inter, Segoe UI, Arial, sans-serif" font-size="12" font-weight="600" fill="#DCE8F2" text-anchor="start" >Phase 1 web portal</text>
<rect x="290" y="62" width="1126" height="76" rx="0" fill="#F8FAFC" stroke="#E5E7EB" stroke-width="1" />
<text x="326" y="106" font-family="Inter, Segoe UI, Arial, sans-serif" font-size="13" font-weight="700" fill="#667085" text-anchor="start" >/seller/products/new</text>
<rect x="1134" y="84" width="86" height="30" rx="15" fill="#E9F7F1" stroke="none" stroke-width="0" />
<text x="1177" y="104" font-family="Inter, Segoe UI, Arial, sans-serif" font-size="13" font-weight="700" fill="#0F8A5F" text-anchor="middle" >Must</text>
<circle cx="1280" cy="100" r="18" fill="#F57C00" stroke="none" stroke-width="1"/>
<text x="1280" y="106" font-family="Inter, Segoe UI, Arial, sans-serif" font-size="12" font-weight="900" fill="#FFFFFF" text-anchor="middle" >1HI</text>
<text x="1312" y="105" font-family="Inter, Segoe UI, Arial, sans-serif" font-size="13" font-weight="700" fill="#1F2933" text-anchor="start" >Logged in role</text>
<rect x="326" y="168" width="92" height="30" rx="15" fill="#FFF1E3" stroke="none" stroke-width="0" />
<text x="372" y="188" font-family="Inter, Segoe UI, Arial, sans-serif" font-size="13" font-weight="700" fill="#F57C00" text-anchor="middle" >Must</text>
<text x="326" y="232" font-family="Inter, Segoe UI, Arial, sans-serif" font-size="30" font-weight="900" fill="#1F2933" text-anchor="start" >Add Product</text>
<text x="326" y="262" font-family="Inter, Segoe UI, Arial, sans-serif" font-size="15" font-weight="400" fill="#667085" text-anchor="start" >Create product with images, category, price, stock, description.</text>
<line x1="326" y1="316" x2="1348" y2="316" stroke="#E5E7EB" stroke-width="1" stroke-linecap="round"/>
<rect x="326" y="334" width="480" height="390" rx="8" fill="#FFFFFF" stroke="#E5E7EB" stroke-width="1" />
<text x="346" y="367" font-family="Inter, Segoe UI, Arial, sans-serif" font-size="16" font-weight="850" fill="#1F2933" text-anchor="start" >Basic details</text>
<rect x="346" y="382" width="52" height="5" rx="3" fill="#163B5C" stroke="none" stroke-width="0" />
<text x="346" y="418" font-family="Inter, Segoe UI, Arial, sans-serif" font-size="13" font-weight="700" fill="#1F2933" text-anchor="start" >Primary field</text>
<rect x="346" y="428" width="440" height="46" rx="7" fill="#FFFFFF" stroke="#E5E7EB" stroke-width="1" />
<text x="362" y="457" font-family="Inter, Segoe UI, Arial, sans-serif" font-size="13" font-weight="400" fill="#667085" text-anchor="start" >Required information</text>
<text x="346" y="488" font-family="Inter, Segoe UI, Arial, sans-serif" font-size="13" font-weight="700" fill="#1F2933" text-anchor="start" >Secondary field</text>
<rect x="346" y="498" width="440" height="46" rx="7" fill="#FFFFFF" stroke="#E5E7EB" stroke-width="1" />
<text x="362" y="527" font-family="Inter, Segoe UI, Arial, sans-serif" font-size="13" font-weight="400" fill="#667085" text-anchor="start" >Additional details</text>
<rect x="346" y="660" width="132" height="44" rx="8" fill="#163B5C" stroke="none" stroke-width="0" />
<text x="412" y="688" font-family="Inter, Segoe UI, Arial, sans-serif" font-size="14" font-weight="800" fill="#FFFFFF" text-anchor="middle" >Save</text>
<rect x="834" y="334" width="514" height="188" rx="8" fill="#FFFFFF" stroke="#E5E7EB" stroke-width="1" />
<text x="854" y="367" font-family="Inter, Segoe UI, Arial, sans-serif" font-size="16" font-weight="850" fill="#1F2933" text-anchor="start" >Validation rules</text>
<rect x="854" y="382" width="52" height="5" rx="3" fill="#0F8A5F" stroke="none" stroke-width="0" />
<rect x="854" y="410" width="438" height="12" rx="6" fill="#D0D5DD" stroke="none" stroke-width="0" />
<rect x="854" y="444" width="414" height="12" rx="6" fill="#D0D5DD" stroke="none" stroke-width="0" />
<rect x="854" y="478" width="390" height="12" rx="6" fill="#D0D5DD" stroke="none" stroke-width="0" />
<rect x="854" y="512" width="366" height="12" rx="6" fill="#D0D5DD" stroke="none" stroke-width="0" />
<rect x="854" y="474" width="90" height="30" rx="15" fill="#EAF1F7" stroke="none" stroke-width="0" />
<text x="899" y="494" font-family="Inter, Segoe UI, Arial, sans-serif" font-size="13" font-weight="700" fill="#0F8A5F" text-anchor="middle" >Review</text>
<rect x="834" y="544" width="514" height="180" rx="8" fill="#FFFFFF" stroke="#E5E7EB" stroke-width="1" />
<text x="854" y="577" font-family="Inter, Segoe UI, Arial, sans-serif" font-size="16" font-weight="850" fill="#1F2933" text-anchor="start" >Upload fields</text>
<rect x="854" y="592" width="52" height="5" rx="3" fill="#F57C00" stroke="none" stroke-width="0" />
<rect x="854" y="620" width="438" height="12" rx="6" fill="#D0D5DD" stroke="none" stroke-width="0" />
<rect x="854" y="654" width="414" height="12" rx="6" fill="#D0D5DD" stroke="none" stroke-width="0" />
<rect x="854" y="688" width="390" height="12" rx="6" fill="#D0D5DD" stroke="none" stroke-width="0" />
<rect x="854" y="722" width="366" height="12" rx="6" fill="#D0D5DD" stroke="none" stroke-width="0" />
<rect x="854" y="676" width="90" height="30" rx="15" fill="#EAF1F7" stroke="none" stroke-width="0" />
<text x="899" y="696" font-family="Inter, Segoe UI, Arial, sans-serif" font-size="13" font-weight="700" fill="#F57C00" text-anchor="middle" >Review</text>
<text x="720" y="894" font-family="Inter, Segoe UI, Arial, sans-serif" font-size="12" font-weight="700" fill="#667085" text-anchor="middle" >1HandIndia UI mockup image - Phase 1 frozen screen list - Not a coded screenshot</text>
</svg>